<?xml version="1.0" encoding="UTF-8"?>
<svg width="113px" height="54px" viewBox="0 0 113 54" version="1.1" xmlns="http://www.w3.org/2000/svg" xmlns:xlink="http://www.w3.org/1999/xlink">
  <!-- Generator: Sketch 50.2 (55047) - http://www.bohemiancoding.com/sketch -->
  <title>DAP_logo</title>
  <desc>Created with Sketch.</desc>
  <defs>
    <linearGradient x1="0.00462511905%" y1="50.0109329%" x2="100.011709%" y2="50.0109329%" id="linearGradient-1">
      <stop stop-color="#C0D75A" offset="0%"></stop>
      <stop stop-color="#C0D75A" offset="26%"></stop>
      <stop stop-color="#F0C543" offset="37.3%"></stop>
      <stop stop-color="#EAC746" offset="60.7%"></stop>
      <stop stop-color="#D64962" offset="75.5%"></stop>
      <stop stop-color="#D64962" offset="100%"></stop>
    </linearGradient>
    <linearGradient x1="0.00637422379%" y1="50.00793%" x2="99.9995841%" y2="50.00793%" id="linearGradient-2">
      <stop stop-color="#C0D75A" offset="0%"></stop>
      <stop stop-color="#C0D75A" offset="26%"></stop>
      <stop stop-color="#F0C543" offset="37.3%"></stop>
      <stop stop-color="#EAC746" offset="60.7%"></stop>
      <stop stop-color="#D64962" offset="75.5%"></stop>
      <stop stop-color="#D64962" offset="100%"></stop>
    </linearGradient>
  </defs>
  <g id="Design" stroke="none" stroke-width="1" fill="none" fill-rule="evenodd">
    <g id="首页" transform="translate(-663.000000, -185.000000)" fill-rule="nonzero">
      <g id="DAP_logo" transform="translate(663.000000, 185.000000)">
        <path d="M94.1698978,45.9708455 C89.540063,45.9708455 85.0671718,44.2548105 81.6144136,41.1533528 L81.6144136,50.0641399 C81.6144136,52.2367347 79.8566459,54 77.6908249,54 C75.5250038,54 73.7672361,52.2367347 73.7672361,50.0641399 L73.7672361,31.1720117 L64.837148,19.8367347 L64.8214536,19.8367347 L64.8057593,19.8682216 C60.8350874,15.271137 53.8981824,14.7673469 49.3154307,18.7504373 C45.1407323,22.3714286 44.2932371,28.5428571 47.337942,33.1556851 L47.87155,33.8483965 L47.8558557,33.8641399 C51.5911122,38.6501458 58.4809341,39.516035 63.2677125,35.7690962 C63.6757657,35.438484 64.0681246,35.0921283 64.4290947,34.7142857 L64.4918722,34.7772595 C65.9828359,33.2029155 68.462544,33.1241983 70.0319795,34.6040816 C71.6014151,36.0997085 71.6798868,38.587172 70.2046174,40.161516 C70.0005908,40.3819242 69.7651755,40.5865889 69.4983715,40.7597668 C61.965081,47.954519 50.0530654,47.671137 42.8807451,40.1142857 C42.5040806,39.7049563 42.1431104,39.2956268 41.7978346,38.8548105 L41.7664459,38.8862974 L27.3590279,19.9941691 L27.3276391,19.9941691 L27.3119448,20.025656 C23.4511334,15.3341108 16.5142284,14.7043732 11.8373106,18.5772595 C7.16039276,22.4501458 6.50122985,29.4087464 10.3777356,34.1002915 C14.2542413,38.7918367 21.1754519,39.4530612 25.8523698,35.5644315 C26.1034794,35.3597668 26.3545891,35.1393586 26.5743101,34.903207 L26.7312536,34.761516 C28.1908287,33.1556851 30.5763707,33.2501458 32.1771949,34.7142857 C33.7780191,36.1784257 33.8721852,38.6816327 32.4126102,40.2717201 C32.1928892,40.5236152 31.9260852,40.7282799 31.6435868,40.9172012 C24.0161302,48.0174927 12.1041146,47.5609329 5.02596046,39.909621 C-2.05219372,32.258309 -1.59705742,20.3090379 6.03039919,13.2087464 C13.1713308,6.59650146 24.1573794,6.50204082 31.3924771,13.0040816 L31.3924771,3.93586006 C31.3924771,1.76326531 33.1502449,0 35.3160659,0 C37.4818869,0 39.2396547,1.76326531 39.2396547,3.93586006 L39.2396547,19.5218659 C43.3986588,9.96559767 54.5102623,5.58892128 64.0367359,9.76093294 C66.6890819,10.9259475 69.0432352,12.6892128 70.9108634,14.9090379 L70.9422521,14.9405248 L87.5782686,35.8950437 C92.4278244,39.5475219 99.3176463,38.5714286 102.958737,33.6909621 C106.599827,28.8262391 105.626777,21.9148688 100.761527,18.2623907 C96.3514131,14.9405248 90.1521429,15.412828 86.3070258,19.3801749 C85.0043944,21.1119534 82.5403806,21.458309 80.8140015,20.1516035 C79.0876225,18.844898 78.7423467,16.3731778 80.0449781,14.6413994 C80.1077555,14.5469388 80.1862273,14.4682216 80.2646991,14.3737609 L80.2490047,14.3580175 C87.2486871,6.64373178 99.1607027,6.09271137 106.850937,13.1142857 C114.541171,20.1358601 115.090473,32.0851312 108.090791,39.7994169 C104.528172,43.735277 99.4745898,45.9708455 94.1698978,45.9708455 Z" id="DAP_样式_拷贝" fill="url(#linearGradient-1)"></path>
        <path d="M94.1725127,45.9708455 C89.5433209,45.9708455 85.0710508,44.2548105 81.6187721,41.1533528 L81.6187721,50.0641399 C81.6187721,52.2367347 79.8612484,54 77.6957282,54 C75.530208,54 73.7726843,52.2367347 73.7726843,50.0641399 L73.7726843,31.1720117 L64.8438363,19.8367347 L64.8281441,19.8367347 L64.8124519,19.8682216 C60.8423315,15.271137 53.9063898,14.7673469 49.3242745,18.7504373 C45.1501558,22.3714286 44.3027783,28.5428571 47.3470604,33.1556851 L47.8805944,33.8483965 L47.8649022,33.8641399 C51.59964,38.6501458 58.4885051,39.516035 63.2746187,35.7690962 C63.6826153,35.438484 64.0749197,35.0921283 64.4358397,34.7142857 L64.545685,34.6040816 C66.0364417,33.0297376 68.4530367,33.1084548 70.0379465,34.6040816 C71.607164,36.0997085 71.6856249,38.587172 70.2105604,40.161516 C70.1320995,40.2717201 69.7241029,40.6338192 69.4730281,40.8069971 C61.9407838,48.0017493 50.0618068,47.6553936 42.8904825,40.1142857 C42.5138703,39.7049563 42.1529502,39.2956268 41.8077224,38.8548105 L41.776338,38.8862974 L27.3395364,20.1043732 L27.3238442,20.0886297 L27.308152,20.0571429 C23.4478768,15.3655977 16.5119351,14.7043732 11.8356668,18.5930029 C7.15939841,22.4816327 6.50032703,29.4244898 10.3762944,34.116035 C14.2522618,38.8075802 21.1725113,39.4688047 25.8487797,35.5801749 C26.0998545,35.3755102 26.3509293,35.155102 26.5706198,34.9189504 L26.7275415,34.7772595 C28.1869139,33.1714286 30.5721246,33.2658892 32.1727265,34.7300292 C33.7733284,36.1941691 33.8674815,38.6973761 32.4081091,40.2874636 C32.1884187,40.5393586 31.9216517,40.7440233 31.6391925,40.9329446 C24.0127951,48.0332362 12.1024338,47.5766764 5.02526251,39.9253644 C-2.05190873,32.2740525 -1.59683564,20.3247813 6.02956176,13.2244898 C13.1695017,6.59650146 24.1540247,6.50204082 31.4038099,13.0040816 L31.4038099,3.93586006 C31.4038099,1.76326531 33.1613335,0 35.3268538,0 C37.492374,0 39.2498977,1.76326531 39.2498977,3.93586006 L39.2498977,19.5218659 C43.4083243,9.96559767 54.5183847,5.58892128 64.0435353,9.76093294 C66.695513,10.9259475 69.0493394,12.6892128 70.9167083,14.9090379 L70.9480926,14.9405248 L87.5817989,35.8950437 C92.4306812,39.5475219 99.3195463,38.5714286 102.960131,33.6909621 C106.600716,28.8262391 105.627801,21.9148688 100.763226,18.2623907 C96.3537251,14.9405248 90.1553157,15.412828 86.3107327,19.3801749 C85.0082821,21.1119534 82.5446105,21.458309 80.8184712,20.1516035 C79.0923318,18.844898 78.747104,16.3731778 80.0495546,14.6413994 C80.1123233,14.5469388 80.1907841,14.4682216 80.269245,14.3737609 L80.2535528,14.3580175 C87.2522632,6.64373178 99.1626246,6.09271137 106.851791,13.1142857 C114.540957,20.1358601 115.090183,32.0851312 108.091473,39.7994169 C104.513656,43.735277 99.4607759,45.9708455 94.1725127,45.9708455 Z" id="DAP_样式_拷贝_1_" fill="url(#linearGradient-2)"></path>
      </g>
    </g>
  </g>
</svg>
